<?xml version="1.0" encoding="UTF-8" standalone="no"?>
<svg
   xmlns:osb="http://www.openswatchbook.org/uri/2009/osb"
   xmlns:dc="http://purl.org/dc/elements/1.1/"
   xmlns:cc="http://creativecommons.org/ns#"
   xmlns:rdf="http://www.w3.org/1999/02/22-rdf-syntax-ns#"
   xmlns:svg="http://www.w3.org/2000/svg"
   xmlns="http://www.w3.org/2000/svg"
   xmlns:xlink="http://www.w3.org/1999/xlink"
   xmlns:sodipodi="http://sodipodi.sourceforge.net/DTD/sodipodi-0.dtd"
   xmlns:inkscape="http://www.inkscape.org/namespaces/inkscape"
   width="6.640224mm"
   height="6.6684041mm"
   viewBox="0 0 6.640224 6.6684041"
   version="1.1"
   id="svg2350"
   inkscape:version="1.0.2 (e86c870, 2021-01-15)"
   sodipodi:docname="whatsapp.svg">
  <defs
     id="defs2344">
    <linearGradient
       id="linearGradient2970"
       osb:paint="solid">
      <stop
         style="stop-color:#ffffee;stop-opacity:1;"
         offset="0"
         id="stop2968" />
    </linearGradient>
    <linearGradient
       id="linearGradient2964"
       osb:paint="solid">
      <stop
         style="stop-color:#ffffff;stop-opacity:1;"
         offset="0"
         id="stop2962" />
    </linearGradient>
    <linearGradient
       inkscape:collect="always"
       xlink:href="#linearGradient2964"
       id="linearGradient2966"
       x1="-153.59444"
       y1="149.67857"
       x2="-147.27461"
       y2="149.67857"
       gradientUnits="userSpaceOnUse" />
    <linearGradient
       inkscape:collect="always"
       xlink:href="#linearGradient2970"
       id="linearGradient2972"
       x1="-153.78255"
       y1="149.70547"
       x2="-147.14232"
       y2="149.70547"
       gradientUnits="userSpaceOnUse" />
  </defs>
  <sodipodi:namedview
     id="base"
     pagecolor="#ffffff"
     bordercolor="#666666"
     borderopacity="1.0"
     inkscape:pageopacity="0.0"
     inkscape:pageshadow="2"
     inkscape:zoom="3.959798"
     inkscape:cx="83.462562"
     inkscape:cy="56.54608"
     inkscape:document-units="mm"
     inkscape:current-layer="layer1"
     inkscape:document-rotation="0"
     showgrid="false"
     fit-margin-top="0"
     fit-margin-left="0"
     fit-margin-right="0"
     fit-margin-bottom="0"
     inkscape:window-width="1366"
     inkscape:window-height="658"
     inkscape:window-x="1360"
     inkscape:window-y="27"
     inkscape:window-maximized="1" />
  <metadata
     id="metadata2347">
    <rdf:RDF>
      <cc:Work
         rdf:about="">
        <dc:format>image/svg+xml</dc:format>
        <dc:type
           rdf:resource="http://purl.org/dc/dcmitype/StillImage" />
        <dc:title></dc:title>
      </cc:Work>
    </rdf:RDF>
  </metadata>
  <g
     inkscape:label="Layer 1"
     inkscape:groupmode="layer"
     id="layer1"
     transform="translate(153.78254,-146.37128)">
    <path
       d="m -153.59444,152.85357 0.44635,-1.63063 c -0.27543,-0.4773 -0.42016,-1.01838 -0.41989,-1.57321 7.9e-4,-1.73461 1.41234,-3.14616 3.14669,-3.14616 0.84163,2.7e-4 1.63168,0.32808 2.22593,0.92287 0.59399,0.59478 0.92102,1.38536 0.92075,2.2262 -7.9e-4,1.73488 -1.41234,3.14643 -3.14668,3.14643 -0.52653,-2.7e-4 -1.04537,-0.13229 -1.50495,-0.38312 z m 1.74545,-1.00727 c 0.44345,0.26326 0.86678,0.42095 1.42664,0.42122 1.44145,0 2.61567,-1.17316 2.61646,-2.61541 5.3e-4,-1.44515 -1.16813,-2.61673 -2.61435,-2.61726 -1.4425,0 -2.61593,1.17317 -2.61646,2.61515 -2.7e-4,0.58869 0.17224,1.02949 0.46196,1.49066 l -0.26432,0.9652 z m 3.01281,-1.44568 c -0.0196,-0.0328 -0.072,-0.0524 -0.15081,-0.0918 -0.0786,-0.0394 -0.46514,-0.22966 -0.53737,-0.25585 -0.072,-0.0262 -0.12435,-0.0394 -0.177,0.0394 -0.0524,0.0786 -0.2032,0.25585 -0.24898,0.30824 -0.0458,0.0524 -0.0918,0.059 -0.17039,0.0196 -0.0786,-0.0394 -0.33205,-0.12224 -0.63235,-0.39026 -0.23363,-0.20849 -0.39159,-0.46593 -0.43736,-0.54478 -0.0458,-0.0786 -0.005,-0.12118 0.0344,-0.16034 0.0354,-0.0352 0.0786,-0.0918 0.118,-0.13784 0.04,-0.0455 0.0529,-0.0783 0.0794,-0.13097 0.0262,-0.0524 0.0132,-0.0984 -0.007,-0.13785 -0.0198,-0.0392 -0.17701,-0.42624 -0.24237,-0.58367 -0.064,-0.1532 -0.12885,-0.13256 -0.177,-0.13494 l -0.15082,-0.003 c -0.0524,0 -0.13758,0.0196 -0.20955,0.0984 -0.072,0.0788 -0.27516,0.26881 -0.27516,0.6559 0,0.38708 0.28178,0.76094 0.32094,0.81333 0.0394,0.0524 0.5543,0.84666 1.34302,1.18718 0.18759,0.081 0.33417,0.12938 0.44821,0.16563 0.18838,0.0598 0.35983,0.0513 0.4953,0.0312 0.15107,-0.0225 0.46513,-0.19023 0.53075,-0.37385 0.0656,-0.18389 0.0656,-0.34132 0.0458,-0.37412 z"
       id="path2390"
       style="fill:url(#linearGradient2972);fill-opacity:1;stroke:url(#linearGradient2966);stroke-width:0.264583" />
  </g>
</svg>
